<svg width="16" height="16" xmlns="http://www.w3.org/2000/svg"><path d="M12.506 1.5a.5.5 0 01.354.146l.062.077 1.827 2.749c.137.205.22.44.244.683l.007.147V8h-1V5.5H2v8h7v1H1.5a.5.5 0 01-.492-.41L1 14V5.303c0-.247.06-.49.176-.706l.076-.126 1.832-2.748a.5.5 0 01.317-.213L3.5 1.5h9.006zm-.652 6.646a.5.5 0 01.057.638l-.057.07-.148.146h.669a2.625 2.625 0 11-2.301 3.889.5.5 0 11.876-.482 1.624 1.624 0 101.565-2.401l-.14-.006h-.668l.147.146a.5.5 0 01.057.638l-.057.07a.5.5 0 01-.638.057l-.07-.057-1-1a.5.5 0 01-.057-.638l.057-.07 1-1a.5.5 0 01.708 0zM6 11v1.5H3V11h3zm7.567-6.5l-1.329-2H8.5v2h5.067zM7.5 2.5H3.767l-1.334 2H7.5v-2z" fill="#000" fill-rule="evenodd"/></svg>
