<svg xmlns="http://www.w3.org/2000/svg" width="16" height="16"><g fill="none" fill-rule="evenodd"><path d="M0 0h16v16H0z"/><path fill="#FFF200" d="M6.89 1.69a1.25 1.25 0 012.16-.12l.06.12 5.76 11.5a1.25 1.25 0 01-.97 1.8l-.15.01H2.25a1.25 1.25 0 01-1.18-1.67l.06-.13L6.9 1.69z"/><path d="M6.89 1.69a1.24 1.24 0 012.16-.12l.06.12 5.76 11.5a1.24 1.24 0 01-.97 1.8l-.15.01H2.25a1.25 1.25 0 01-1.18-1.67l.06-.13L6.9 1.69zM8.05 2a.24.24 0 00-.23.07l-.04.06-5.75 11.5a.25.25 0 00.16.35l.06.01h11.5a.24.24 0 00.24-.3l-.02-.06-5.75-11.5a.24.24 0 00-.07-.09l-.04-.02L8.05 2zM8 11.5a.5.5 0 110 1 .5.5 0 010-1zm0-6a.5.5 0 01.5.41V10.14a.5.5 0 01-1 .09V6a.5.5 0 01.5-.5z" fill="#000"/></g></svg>