<?xml version="1.0" encoding="UTF-8"?>
<svg width="100px" height="36px" viewBox="0 0 100 36" version="1.1" xmlns="http://www.w3.org/2000/svg" xmlns:xlink="http://www.w3.org/1999/xlink">
    <!-- Generator: Sketch 57.1 (83088) - https://sketch.com -->
    <title>IRS-Logo</title>
    <desc>Created with Sketch.</desc>
    <g id="Specs" stroke="none" stroke-width="1" fill="none" fill-rule="evenodd">
        <g id="Desktop-Header-Specs" transform="translate(-1758.000000, -267.000000)">
            <g id="Utility-Nav-Specs" transform="translate(1643.000000, 247.000000)">
                <g id="Utility-Nav">
                    <g id="IRS-Logo" transform="translate(115.000000, 16.000000)">
                        <rect id="Bounding-Box" x="0" y="0" width="100" height="43"></rect>
                        <path d="M29.087645,14.1210561 C30.3848396,13.9102392 29.7761258,16.2446179 29.4328661,17.1574885 C28.9647253,16.0317932 28.6175427,15.395327 27.8126806,14.3405733 C28.2801675,14.1919976 28.6253887,14.1919976 29.087645,14.1210561 L29.087645,14.1210561 Z M19.1553452,17.9391841 L15.6259822,17.9391841 C15.3546436,17.091901 15.6109441,16.8797456 16.3733075,16.80345 C17.7986523,16.6689287 19.0271949,16.6689287 19.1553452,17.9391841 L19.1553452,17.9391841 Z M18.8885834,32.0686003 L18.8885834,29.3922297 L20.9298342,29.3922297 L17.8614198,38.0979632 L14.8132741,29.3922297 L16.853871,29.3922297 L16.853871,31.3116673 C16.8479865,31.3043054 16.8551786,31.4890212 16.9205614,31.5077604 C17.1905923,31.6509821 17.2520522,31.6509821 17.2481292,31.6442895 L18.8885834,32.0686003 Z M24.942376,37.5210611 C24.942376,37.5244074 23.4908781,37.6656213 22.571596,37.6729831 C21.7235812,37.6656213 20.3891185,37.5244074 20.3825802,37.5210611 L22.571596,30.5306409 L24.942376,37.5210611 Z M13.1715122,37.6729831 C12.2456919,37.6656213 10.7941939,37.5244074 10.8000605,37.5210611 L13.1715122,30.5306409 L15.360528,37.5210611 C15.3546436,37.5244074 14.0221423,37.6656213 13.1715122,37.6729831 L13.1715122,37.6729831 Z M37.9398211,16.3108746 C37.465142,12.2136652 37.1892266,11.1508804 36.6465494,10.2319865 C36.2091386,9.48040753 31.743494,7.40302463 25.2908663,6.05714286 C22.636325,8.95838476 22.6284791,10.1108504 22.571596,10.5900405 C22.4977135,11.0812773 23.4496869,12.2979919 24.4108139,13.559547 C26.173534,15.8892409 26.6501745,16.3148902 26.9169363,17.022298 C27.4301912,18.3521175 26.5821764,21.3276473 25.9715012,24.0943679 C25.9656167,24.087006 24.3826993,18.2597596 23.6497583,14.4757638 C23.5811063,14.1223946 23.719064,13.9102392 23.7151411,13.9169318 C19.726137,13.5200606 17.0559038,13.3440452 16.5714173,15.4609145 C14.7420068,15.4655993 13.8992226,15.9969917 13.71942,16.3108746 C13.2414718,17.0992629 13.8155327,18.7483194 14.1189088,19.5614702 C14.3745555,18.9243348 16.0123945,19.0300778 16.5393797,19.061533 C16.7727963,19.0729105 16.7727963,19.2074317 16.8375253,19.341953 L16.853871,27.2700064 L12.1600404,27.2700064 L8.08080808,38.3696827 C9.97363988,39.2939307 11.948854,39.9993307 13.1715122,40 C14.403324,40 17.4253166,38.373029 17.8614198,38.3696827 C18.2752928,38.373029 21.3371689,39.9993307 22.571596,40 C23.7890236,40 25.7648915,39.3635338 27.6616463,38.3696827 L23.5811063,27.2700064 L18.8885834,27.2700064 L18.8885834,19.7662638 C18.8081626,19.2696729 18.5930532,19.1090505 18.4093276,19.0775953 L20.7964533,19.0775953 C20.4512321,17.6574257 19.9745916,16.6689287 19.3037641,16.5993257 C19.4966434,16.3148902 19.642447,16.201116 19.9177086,15.9534898 L18.0778368,15.9534898 C18.2752928,14.9703469 20.6591494,15.3237162 21.6758518,15.3933192 C22.7324377,20.7132666 24.7279205,27.8589552 24.809649,27.984776 C24.8946466,28.0998887 26.5821764,28.7430476 26.7855169,28.7644639 C27.7551437,26.6342094 29.2197182,20.3672592 29.304062,18.8567395 C30.5221434,19.2770348 30.0383108,20.940815 29.7813564,22.5999104 C28.4043948,31.2119475 27.3118484,33.795291 26.9836268,35.39683 C28.2030158,35.1318031 28.9647253,34.9055932 29.087645,34.7683949 C29.2824857,34.572971 29.8382394,33.1159921 30.3279565,31.5077604 C31.0347445,29.1760587 32.2201345,23.2390537 32.1514826,20.9040057 C32.1462519,20.3378118 31.6833418,19.7729564 30.8614801,19.341953 C30.8614801,19.3479763 31.2740455,18.6271833 31.4715015,18.1607091 C31.7232253,17.5510133 32.0194093,16.5270456 32.0194093,16.5317304 C32.4980114,16.6689287 32.9197304,16.8864382 32.9811902,17.3790135 C33.2446828,19.630404 33.1067251,19.8432287 32.8334251,24.0093719 C32.7530042,25.3391914 32.2900941,27.9794219 31.8206456,30.7347652 C30.9445162,35.7896856 30.1128471,37.9560801 30.1128471,38.7250598 C31.4054649,38.3027568 32.400591,37.9761579 32.5006267,37.8081736 C32.6287769,37.5665708 33.5827119,35.1177486 34.2587699,31.447527 C34.5503772,29.8747661 34.7589483,28.3187367 35.0054414,26.7098358 C35.3513164,24.5815892 35.4180068,22.3824009 35.4206221,20.5466209 C35.4206221,17.8695811 35.7298827,17.8561959 33.7952059,16.80345 C34.5379544,14.6163084 34.3784204,13.1881077 34.1933871,12.7785206 C33.8599349,12.0008405 33.4526001,12.0008405 31.7382633,12.1353618 C32.3600537,12.7069098 32.1658668,13.9102392 32.0194093,14.6122929 C31.6833418,14.3332115 31.8141074,13.8386284 29.9807739,13.9169318 C29.7055124,10.8684527 29.1589122,10.5277994 29.087645,10.43678 C28.8261138,10.0901033 27.3118484,10.2527335 26.8502459,10.43678 C27.1882749,10.6562973 27.8721789,13.0609483 27.5289192,13.984527 C27.3262326,13.6967452 24.7429585,10.7265696 24.942376,10.1643912 C25.0672572,9.82106084 25.2182914,9.45296787 26.1048821,8.40089122 C29.1641429,8.95838476 34.4052274,10.938725 34.6746045,11.5069267 C35.0002108,12.1915796 35.3016254,12.9819756 35.4846973,14.1886513 C35.7723815,15.9394354 36.2915209,20.1189638 36.032605,26.4883108 C35.7658433,33.0657976 34.9237129,36.8016067 34.9387509,36.6021672 C35.9044548,36.2996617 37.48018,34.8065427 37.6089841,34.4799439 C38.0189342,33.3984198 38.2118135,29.5354513 38.3543479,25.9964047 C38.4890365,22.4600351 38.1294311,17.9974097 37.9398211,16.3108746 L37.9398211,16.3108746 Z" id="Fill-8" fill="#FFFFFF"></path>
                        <path d="M16.1857921,4.7373645 C18.3779627,3.85424317 20.5936616,4.01338259 21.2121212,4.00791858 C20.7852496,5.37050716 18.9802886,7.98230603 17.0859198,8.92894652 C16.0573945,9.43368485 14.0265613,9.84553494 12.7580468,10.2286989 C11.2838272,10.6555751 9.01838268,11.4184881 7.30148494,12.7394135 C6.09884983,13.670345 5.54492511,14.9851235 5.68475077,16.7930292 C6.73613216,15.6332922 8.97468717,14.1907924 10.7964542,13.6054598 C10.3050476,15.2740332 10.3823551,16.6222788 9.80960768,18.1542518 C9.45197667,19.1282124 6.73613216,21.4729575 5.97381343,22.6934817 C5.42257766,23.5738711 5.13284276,25.0320799 5.34258125,26.3147573 C5.33854782,26.3113423 6.04170954,25.3947538 6.51765457,24.8585974 C7.66785505,23.6319262 9.88557066,22.1224922 9.8775038,22.1224922 C9.88557066,22.9455094 9.53533428,26.5285368 9.11115163,28.0488988 C8.77637674,29.2933281 6.52370472,31.6476353 5.90591731,32.304 C5.89986716,32.296487 6.55261098,34.0374586 6.94385393,35.1808036 C7.29812375,36.1957443 7.43257149,36.9190432 7.4379494,36.9142857 C6.66554709,36.6294504 3.03276893,35.1131864 1.90273561,33.9514004 C0.624809762,32.6304749 0.554224694,31.149044 0.298101733,29.5569668 C0.226844427,29.0556435 -0.093141214,25.9206652 0.026517282,25.2923036 C0.0197948946,25.2991336 1.92491949,26.6214251 2.88958208,27.7545251 C3.94096347,28.9825623 4.70597116,30.1382013 4.71134907,30.1457143 C4.63404161,29.632097 4.53522252,29.1915608 4.50631625,28.8445959 C4.39674134,27.8863444 5.01116755,27.1780715 4.91638189,26.956779 C4.91638189,26.960877 4.84781353,26.7450484 4.57421237,26.1590329 C4.0350769,25.054619 1.41334581,23.19139 0.725645573,21.9838429 C0.417760229,21.4948136 -0.257167467,20.3890337 0.161637269,14.7665629 C0.161637269,14.7665629 2.24288841,16.9624137 3.31578144,18.3632503 C3.98465899,19.2648127 4.70597116,20.6786264 4.71134907,20.6827244 C4.49892163,18.7300223 5.26796275,17.7287417 5.20678902,17.7116666 C5.19536096,17.6556605 5.06091322,16.9344106 4.77924518,16.4283063 C3.79979334,14.6962137 1.46981386,13.7284002 1.15251717,11.6657347 C0.880260483,10.0620465 1.56325504,8.77663712 5.18931081,7.33550333 C5.89986716,9.85987797 5.48039019,12.0256767 5.4111496,14.038483 C7.15560913,12.530415 6.94318169,8.70355593 7.79692489,7.33550333 C8.09472665,6.82734999 8.49201975,6.28846158 9.80960768,5.74137714 C11.0424935,5.24141982 11.7745615,4.88011187 12.9637519,4.7373645 C12.9395513,4.88011187 12.2935298,7.210514 11.7705281,8.33951597 C11.1419849,9.71576459 10.283536,10.249872 10.235807,10.3666653 C11.6320469,10.0046744 12.6841005,9.35445664 13.594984,7.97547602 C13.8988359,7.52810984 14.2551225,7.02951853 14.6530878,6.40115687 C15.0127355,5.79670028 15.4039785,5.05359433 16.1857921,4.7373645" id="Fill-11" fill="#FFFFFF"></path>
                        <path d="M99.2014306,25.3043854 C98.6683839,24.2324491 97.9071744,23.3033469 96.9211381,22.5136781 C95.9337674,21.7246894 94.0897859,20.5915385 91.3925294,19.1128649 C88.0815019,17.3022719 85.9846735,15.8548858 85.1053799,14.7693462 C84.4942775,14.0300094 84.1880592,13.2110936 84.1880592,12.3125987 C84.1880592,11.1406785 84.6717374,10.0939082 85.6377595,9.17432827 C86.6037816,8.25474837 87.8246521,7.79495842 89.3030396,7.79495842 C90.6099714,7.79495842 91.8728719,8.13503974 93.0957438,8.81520239 C94.3166143,9.49672536 95.2592865,10.4169854 95.9190902,11.5739421 C96.578894,12.7336194 97.0385551,14.2905117 97.2927363,16.2459793 L98.0806315,16.2459793 L98.0806315,6.05714286 L97.2927363,6.05714286 C97.1513022,6.73662534 96.9638352,7.19029383 96.7283339,7.41406734 C96.4948341,7.63920117 96.1926186,7.75006769 95.8236889,7.75006769 C95.4954548,7.75006769 94.9343881,7.56982458 94.1398216,7.20797806 C92.4205958,6.44007443 90.7934356,6.05714286 89.2610096,6.05714286 C86.8019229,6.05714286 84.7784801,6.82096551 83.1880128,8.34793065 C81.595544,9.87693628 80.8003103,11.6984119 80.8003103,13.8130375 C80.8003103,15.0291683 81.0698358,16.1453152 81.6102211,17.1573973 C82.148605,18.1728801 82.9425044,19.0992616 83.9852479,19.9385823 C85.0306599,20.7792634 86.78858,21.9049325 89.2610096,23.3169502 C91.7314377,24.7289678 93.2451837,25.6519486 93.8002461,26.0872526 C94.6214984,26.7238849 95.2292651,27.4122095 95.6202105,28.1508661 C96.0131573,28.8895228 96.2059615,29.6213778 96.2059615,30.3450708 C96.2059615,31.6482625 95.6922618,32.7780126 94.6628612,33.7350015 C93.6314591,34.6899498 92.2304602,35.1681042 90.4545272,35.1681042 C88.9200998,35.1681042 87.5090938,34.8212212 86.2241776,34.126095 C84.9379272,33.4302886 83.9805779,32.5569597 83.3588012,31.5088291 C82.7323545,30.4572977 82.2346663,28.8752393 81.8664038,26.7612938 L81.0778415,26.7612938 L81.0778415,36.1903886 L82.0071708,36.1903886 C82.092565,35.8815948 82.1979735,35.6489791 82.3240634,35.5163474 C82.5288761,35.2973351 82.8110773,35.1905495 83.1666642,35.1905495 C83.5349268,35.1905495 84.4128861,35.418404 85.7978736,35.8747931 C87.1815269,36.3311823 88.096179,36.5944052 88.5358258,36.6685429 C89.2730181,36.7977739 90.0629147,36.8630695 90.9028469,36.8630695 C93.5720835,36.8630695 95.7556404,36.0550362 97.4535176,34.4403301 C99.1507278,32.8263042 100,30.9034844 100,28.6718707 C100,27.4999505 99.7344773,26.3776821 99.2014306,25.3043854 M62.1551125,21.5018391 C62.4169511,21.5018391 62.6450876,21.5059925 62.838226,21.513607 C63.0320125,21.5205293 63.1908007,21.5246826 63.3145907,21.5246826 C65.9913067,21.5246826 68.0095376,20.9058312 69.3692834,19.6660516 C70.7290293,18.4283488 71.4089022,16.8521466 71.4089022,14.9353685 C71.4089022,13.062893 70.8605967,11.5406846 69.7639856,10.3687433 C68.6647822,9.19749428 67.213004,8.61186976 65.4054105,8.61186976 C64.6049882,8.61186976 63.5219876,8.75239196 62.1551125,9.03135966 L62.1551125,21.5018391 Z M64.390462,6.93044902 C67.3724403,6.93044902 69.5695511,7.16372971 70.9824423,7.62752218 C72.3998704,8.09200687 73.6001798,8.94760013 74.5872594,10.1929175 C75.5730427,11.4382349 76.0675546,12.923063 76.0675546,14.6487863 C76.0675546,16.4901116 75.5043425,18.0905417 74.3798625,19.4459233 C73.2553825,20.8040737 71.5119525,21.7614245 69.1521648,22.3207443 L74.950852,30.9216717 C76.2730072,32.8959047 77.4123938,34.2090604 78.3644751,34.8562932 C79.3165564,35.5056026 80.118275,35.8683299 81.675696,36.1874468 L81.6834733,36.9142857 L74.5969811,36.9142857 L65.0949633,22.8952932 C64.390462,22.9257512 63.81688,22.9395958 63.3768098,22.9395958 C63.1966337,22.9395958 63.0041435,22.9361346 62.7960985,22.9285201 C62.5893497,22.9215978 62.3754717,22.9091378 62.1551125,22.8952932 L62.1551125,31.6062848 C62.1551125,33.4939893 62.3476027,34.6659306 62.7358238,35.1214163 C63.2588528,35.7707258 64.0456647,36.0946883 65.0949633,36.0946883 L66.1922225,36.0946883 L66.1922225,36.9142857 L54.1638514,36.9142857 L54.1638514,36.0946883 L55.2196311,36.0946883 C56.4063302,36.0946883 57.2553612,35.6821207 57.766076,34.8562932 C58.0557835,34.4001152 58.2009613,33.3160869 58.2009613,31.6062848 L58.2009613,12.2377577 C58.2009613,10.3514376 58.0084711,9.17880413 57.6208982,8.72193394 C57.0823144,8.07400895 56.2825402,7.74935423 55.2196311,7.74935423 L54.1638514,7.74935423 L54.1638514,6.93044902 L64.390462,6.93044902 Z M52.9129595,6.93044902 L52.9129595,7.75004645 L51.8587538,7.75004645 C50.6663689,7.75004645 49.7975255,8.11138924 49.2528975,8.83338258 C48.8943058,9.30548178 48.7143359,10.4393505 48.7143359,12.2384499 L48.7143359,31.606977 C48.7143359,33.1257243 48.807354,34.1266853 48.9954125,34.6140135 C49.1383099,34.9822786 49.4402819,35.2986266 49.8979581,35.5637497 C50.515383,35.9188625 51.1692062,36.0953805 51.8587538,36.0953805 L52.9129595,36.0953805 L52.9129595,36.9142857 L40.4040404,36.9142857 L40.4040404,36.0953805 L41.4380248,36.0953805 C42.6425424,36.0953805 43.5188003,35.73473 44.0641024,35.0127366 C44.4085392,34.539253 44.5810946,33.4060764 44.5810946,31.606977 L44.5810946,12.2384499 C44.5810946,10.7203949 44.4874024,9.7180494 44.300692,9.23141343 C44.1577946,8.86314837 43.8625631,8.54541592 43.4183677,8.28029276 C42.7867879,7.92656448 42.1268983,7.75004645 41.4380248,7.75004645 L40.4040404,7.75004645 L40.4040404,6.93044902 L52.9129595,6.93044902 Z" id="Fill-5" fill="#FFFFFF"></path>
                    </g>
                </g>
            </g>
        </g>
    </g>
</svg>