<svg width="343" height="691" viewBox="0 0 343 691" fill="none" xmlns="http://www.w3.org/2000/svg">
<rect y="93.4066" width="11.956" height="29.1429" rx="2.3194" fill="#455A64"/>
<rect y="144.22" width="11.956" height="54.5494" rx="2.3194" fill="#455A64"/>
<rect y="215.209" width="11.956" height="54.5494" rx="2.3194" fill="#455A64"/>
<rect x="330.364" y="166.637" width="11.956" height="85.9341" rx="2.3194" fill="#455A64"/>
<path fill-rule="evenodd" clip-rule="evenodd" d="M3.4791 40.5896C3.4791 18.1726 21.6517 0 44.0686 0H298.032C320.449 0 338.621 18.1726 338.621 40.5895V650.244C338.621 672.661 320.448 690.834 298.032 690.834H44.0686C21.6516 690.834 3.4791 672.661 3.4791 650.244V40.5896ZM259.83 13.9164H298.032C312.763 13.9164 324.705 25.8584 324.705 40.5895V650.244C324.705 664.975 312.763 676.917 298.032 676.917H44.0686C29.3374 676.917 17.3955 664.975 17.3955 650.244V40.5896C17.3955 25.8584 29.3375 13.9164 44.0686 13.9164H81.1791C85.022 13.9164 88.1373 17.0317 88.1373 20.8746V28.9925C88.1373 35.3974 93.3294 40.5895 99.7343 40.5895H241.218C247.623 40.5895 252.815 35.3974 252.815 28.9925V20.8746C252.815 17.0317 255.987 13.9164 259.83 13.9164Z" fill="#263238"/>
</svg>
