<svg version="1.2" baseProfile="tiny" xmlns="http://www.w3.org/2000/svg" viewBox="0 0 192 192"><path fill="#FCC551" d="M96 192c-9.893 0-6.827 1.48-15.807-1.298C41.046 178.588 0 139.127 0 96.002 0 42.98 42.98 0 96 0c46.234 0 84.834 32.683 93.957 76.206C191.297 82.594 192 89.216 192 96c0 53.02-42.98 96-96 96z"/><path fill="#E6A649" d="M96 192c-9.893 0-6.827 1.48-15.807-1.298L30.7 141.208 160.913 51.08l29.904 29.852c.71 4.71 1.182 10.16 1.182 15.07C192 149.018 149.02 192 96 192z"/><g><path fill="#D9E2E1" d="M163 137c0 3.866-3.134 7-7 7H36c-3.866 0-7-3.134-7-7V56c0-3.866 3.134-7 7-7h120c3.866 0 7 3.134 7 7v81z"/><path fill="#2A559A" d="M70 99h52v3H70zM70 111h52v4H70zM35 126v7.748S35.323 137 38.824 137H51.63s.03-11-3.73-11H35zM56.327 78H35v4h18.993S54 89.408 48 89.408v-2.334c4 0 3.66-3.074 3.66-3.074H35v8h13.16c8.866 0 8.167-14 8.167-14zM35 93h13v33H35zM157 126v7.748s-.323 3.252-3.824 3.252h-12.793s-.03-11 3.73-11H157zM135.687 78s-.7 14 8.168 14H157v-8h-16.646S140 87.074 144 87.074v2.334c-7 0-5.98-7.408-5.98-7.408H157v-4h-21.313zM144 93h13v33h-13z"/><g fill="#2A559A"><path d="M52.488 65.915c-.25-.383-.545-.65-.884-.802-.338-.152-.684-.196-1.04-.133-.592.105-1.027.405-1.3.903-.343.628-.438 1.377-.284 2.245.153.87.48 1.52.98 1.953.43.372.937.505 1.52.403.585-.104 1.016-.403 1.29-.897.323-.59.407-1.32.254-2.184-.107-.608-.286-1.104-.536-1.487z"/><path d="M153.176 56H38.824S35 55.568 35 59.07V78h18.993S96 65 138.007 78H157V59.07c0-3.502-3.824-3.07-3.824-3.07zM45.96 71.988c-.485.633-1.17 1.05-2.053 1.245-.41.093-.8.124-1.166.097-.367-.027-.763-.12-1.192-.28l-.123.6-.826.183-1.207-2.826.984-.477c.377.545.868.96 1.474 1.248.606.286 1.217.36 1.836.223.277-.06.5-.146.668-.255.167-.11.283-.237.348-.38.065-.145.084-.283.054-.413-.048-.22-.197-.382-.447-.49-.254-.107-.668-.178-1.246-.21l-1.377-.082c-.208-.01-.495-.053-.863-.13-.37-.076-.66-.176-.877-.3-.215-.124-.41-.3-.587-.53-.175-.23-.294-.487-.357-.77-.09-.404-.06-.8.093-1.19.152-.39.433-.743.843-1.056.408-.312.892-.53 1.446-.654.67-.15 1.312-.112 1.928.11l.132-.43.793-.176 1.233 2.402-.973.52c-.48-.533-.97-.892-1.467-1.078-.5-.185-.994-.223-1.485-.114-.318.07-.553.19-.707.358-.154.17-.215.33-.18.487.04.177.16.324.36.44.198.116.527.186.99.21l1.583.094c.876.05 1.532.227 1.97.534.434.312.71.726.824 1.243.147.66.003 1.275-.428 1.848zm9.066-2.824c-.243.667-.645 1.218-1.204 1.656-.56.437-1.276.732-2.15.886-1.152.204-2.152.06-2.997-.434-1.02-.594-1.642-1.52-1.864-2.777-.206-1.17.014-2.195.66-3.077.648-.882 1.6-1.433 2.857-1.655 1.24-.22 2.307-.026 3.204.58.9.604 1.45 1.487 1.656 2.65.138.78.084 1.503-.16 2.17zm7.88.116c-.658.562-1.433.904-2.322 1.027-.74.103-1.433.02-2.08-.245-.645-.265-1.19-.687-1.633-1.265-.442-.576-.715-1.236-.818-1.977-.102-.737-.022-1.433.242-2.09.262-.653.67-1.192 1.22-1.613.55-.422 1.195-.684 1.93-.787.747-.102 1.422-.038 2.028.193l.14-.357.8-.11 1.153 2.663-1.005.443c-.44-.612-.834-1.035-1.18-1.268-.48-.32-.97-.447-1.47-.377-.364.05-.69.197-.98.44-.29.243-.5.57-.633.984-.132.413-.162.88-.09 1.4.11.79.417 1.444.922 1.957.505.512 1.102.72 1.792.624.44-.06.845-.243 1.216-.546.465-.376.845-.848 1.14-1.416l.963.516c-.46.838-.905 1.44-1.333 1.802zm2.172.306l-.12-1.072.313-.035c.224-.026.368-.058.433-.098.064-.038.11-.094.133-.166.025-.072.026-.21.002-.414l-.483-4.3c-.027-.24-.06-.397-.1-.47-.042-.07-.103-.123-.183-.155-.057-.024-.186-.024-.392 0l-.352.04-.12-1.072 3.847-.433.12 1.07-.35.04c-.203.024-.337.056-.398.1-.062.04-.105.103-.128.18-.025.08-.025.228 0 .442l.48 4.284c.027.233.057.38.09.445.035.064.085.107.153.13.084.034.205.043.363.025l.418-.047.12 1.073-3.846.433zm8.79-.897l-.094-1.075.227-.025c.208-.018.35-.058.43-.118.078-.062.113-.13.106-.21-.006-.066-.053-.2-.144-.4l-.297-.687-2.4.21-.23.81c-.044.173-.065.285-.06.336.004.06.032.113.078.157.048.045.122.073.223.087.065.01.243 0 .534-.024l.093 1.073-3.057.268-.094-1.072c.197-.017.338-.047.426-.088.087-.04.158-.098.21-.17.053-.072.108-.202.163-.39l1.907-6.326 1.774-.155 2.895 5.782c.156.308.29.493.395.56.107.064.294.084.56.056l.095 1.074-3.737.327zm10.205-.695l-6.044.35-.063-1.077.377-.022c.155-.01.27-.036.347-.082.077-.045.132-.104.164-.174.032-.07.042-.192.033-.363l-.256-4.404c-.01-.186-.035-.318-.075-.397-.04-.08-.094-.137-.163-.17-.067-.033-.18-.046-.333-.037l-.418.023-.062-1.075 3.864-.224.063 1.076-.34.02c-.187.01-.305.027-.353.048-.088.042-.15.103-.187.18-.038.08-.05.203-.04.37l.255 4.443c.01.18.025.29.045.33.02.04.055.068.11.09.055.02.157.027.31.018.506-.028.91-.117 1.21-.265.3-.15.568-.373.798-.676.23-.302.42-.706.57-1.21l1.065.29-.877 2.938zm11.355-.927c-.603.523-1.357.79-2.263.805-.42.006-.808-.042-1.16-.144-.356-.1-.726-.274-1.11-.518l-.244.562-.846.012-.606-3.012 1.06-.266c.26.61.655 1.118 1.19 1.52.534.405 1.117.602 1.75.593.285-.003.52-.042.706-.115.187-.073.326-.174.42-.3.092-.13.138-.26.137-.395-.003-.223-.116-.413-.338-.57-.226-.157-.618-.31-1.177-.457l-1.33-.36c-.203-.054-.475-.155-.82-.305-.346-.15-.61-.306-.797-.47-.187-.167-.342-.38-.467-.64-.123-.26-.188-.536-.193-.827-.005-.41.106-.794.334-1.145.23-.352.575-.638 1.04-.862.465-.222.98-.337 1.55-.346.686-.01 1.308.157 1.867.5l.215-.395.812-.012.72 2.603-1.058.31c-.36-.617-.767-1.068-1.217-1.35-.452-.284-.928-.422-1.432-.414-.325.004-.58.072-.766.205-.186.134-.277.28-.275.44.003.182.09.35.264.505.17.154.478.29.927.406l1.53.414c.848.226 1.455.535 1.82.924.363.394.547.855.554 1.384.01.674-.253 1.248-.792 1.72zm8.37.74l-6.86-.116.018-1.078.2.003c.264.005.443-.01.534-.047.092-.035.157-.1.197-.192.02-.055.032-.213.036-.474l.07-4.243c.006-.23-.008-.38-.04-.452-.03-.07-.08-.125-.147-.162-.067-.036-.202-.056-.402-.06l-.353-.005.02-1.077 6.62.112.862 2.477-1.035.345c-.167-.404-.365-.73-.594-.98-.23-.25-.484-.418-.765-.502-.28-.086-.61-.13-.983-.137l-1.212-.02-.032 1.943.4.007c.298.005.5-.013.605-.054.105-.04.18-.106.228-.197.047-.09.073-.272.078-.544l.005-.295 1.012.017-.056 3.3-1.01-.018.005-.336c.005-.228-.02-.396-.074-.502-.05-.105-.125-.178-.22-.216-.094-.04-.303-.062-.63-.067l-.357-.006-.03 1.79c-.004.19.004.306.022.348.018.04.055.073.11.097.054.022.172.036.354.038l.664.012c.497.01.917-.055 1.26-.19.344-.134.65-.355.925-.663.27-.307.483-.674.634-1.103l1.032.37-1.09 2.877zm7.88-.204c-.753.428-1.578.62-2.474.574-.745-.037-1.41-.247-1.996-.63-.585-.38-1.04-.897-1.37-1.547-.326-.65-.47-1.347-.434-2.095.038-.744.248-1.412.628-2.007.38-.593.88-1.046 1.502-1.357.62-.31 1.3-.448 2.042-.41.753.038 1.405.227 1.957.57l.204-.327.805.04.636 2.834-1.07.248c-.32-.684-.627-1.173-.923-1.467-.412-.404-.87-.62-1.373-.646-.367-.018-.716.065-1.045.25-.33.184-.6.467-.805.848-.208.38-.325.834-.35 1.358-.04.8.14 1.497.54 2.095s.948.916 1.644.95c.442.022.875-.08 1.296-.31.526-.282.99-.674 1.385-1.175l.848.685c-.61.737-1.16 1.244-1.646 1.52zm9.873-5.34c-.093.038-.164.097-.213.18-.035.052-.064.204-.085.456l-.264 3.06c-.047.564-.172 1.03-.37 1.398-.276.5-.677.87-1.205 1.114-.53.245-1.14.338-1.83.278-.487-.042-.917-.152-1.29-.332-.372-.18-.69-.42-.957-.716-.265-.297-.442-.603-.53-.917-.09-.314-.11-.768-.058-1.36l.258-3c.024-.275.024-.452 0-.534-.023-.083-.067-.145-.132-.188-.065-.043-.195-.072-.39-.09l-.365-.03.092-1.075 3.857.332-.093 1.073-.38-.033c-.174-.015-.3-.004-.376.03-.076.034-.136.088-.175.16-.04.075-.07.227-.092.46l-.242 2.827c-.045.526-.024.924.06 1.193.087.27.232.48.438.635.206.154.463.245.774.27.31.027.593-.023.847-.15.254-.128.443-.3.568-.52.123-.22.207-.593.253-1.12l.268-3.115c.012-.13.003-.223-.027-.282-.038-.078-.093-.135-.166-.17-.052-.03-.184-.05-.4-.07l-.306-.026.093-1.073 3.263.28-.092 1.072-.255-.02c-.253-.023-.41-.022-.474.003zm9.32 7.83l-2.52-.312-2.114-3.645-.654-.08-.192 1.54c-.033.266-.038.437-.017.513.02.075.063.136.124.18.06.042.192.075.39.1l.363.045-.134 1.07-3.852-.478.133-1.07.35.045c.187.023.32.02.403-.01.082-.03.147-.08.195-.153.024-.043.05-.18.08-.414l.54-4.35c.02-.17.02-.292 0-.367-.018-.077-.06-.13-.12-.16-.086-.052-.188-.085-.305-.1l-.16-.014-.295-.036.137-1.103 4.854.6c.314.04.65.11 1.014.212.365.1.684.264.96.49.276.225.478.492.608.8.13.31.174.644.128 1.007-.073.586-.345 1.035-.817 1.346-.473.312-1.007.487-1.603.525l1.39 2.052.057.09c.09.14.173.245.253.317.08.072.16.125.243.16.083.04.2.066.356.086l.34.042-.135 1.07zm5.194-5.954l-.35-.055c-.2-.03-.337-.034-.408-.01-.07.026-.128.073-.172.144-.043.07-.082.212-.115.425l-.66 4.26c-.036.232-.046.382-.03.453.016.07.053.125.113.164.07.056.187.097.344.12l.416.066-.165 1.064-3.826-.59.165-1.067.312.048c.22.034.368.04.44.02.072-.02.13-.062.173-.125.043-.064.08-.196.11-.4l.662-4.274c.038-.24.046-.4.025-.48-.02-.08-.065-.147-.133-.198-.05-.038-.174-.073-.378-.104l-.35-.055.164-1.064 3.825.59-.166 1.067zm7.143 3.06c-.148-.49-.26-.81-.336-.965-.148-.304-.336-.556-.565-.757-.172-.153-.353-.246-.543-.282-.09-.017-.155-.007-.196.03-.04.035-.075.13-.104.278l-.812 4.404c-.048.26-.07.424-.062.494.007.07.03.127.067.174.038.047.095.084.17.112.078.027.286.07.628.134l-.196 1.06-3.806-.702.196-1.06.23.043c.255.047.422.062.498.044.078-.02.14-.063.194-.135.052-.072.1-.232.147-.482l.83-4.502c.023-.128.023-.21 0-.25-.023-.038-.084-.067-.18-.084-.194-.036-.425-.004-.69.095-.263.097-.513.26-.748.485-.093.09-.304.347-.633.774l-.957-.547 1.456-2.507.738.136.03.272 4.395.81.142-.24.744.138.473 2.863-1.106.166zm9.51.29c-.27-.058-.466-.07-.588-.036-.123.034-.285.144-.486.332l-2.725 2.49-.305 1.357c-.054.24-.073.4-.057.477.016.077.058.142.126.195.07.05.215.1.438.15l.273.063-.236 1.05-3.778-.845.236-1.052.205.048c.267.06.44.08.522.062.082-.018.15-.063.208-.136s.114-.234.17-.48l.266-1.19-1.37-3.538c-.108-.276-.216-.46-.325-.548-.08-.06-.25-.12-.513-.178l.235-1.052 3.844.862-.235 1.052-.288-.065c-.204-.046-.335-.058-.393-.04-.06.02-.096.064-.112.133-.02.095.007.25.083.464l.646 1.878 1.517-1.468c.133-.126.207-.197.222-.213.023-.035.04-.073.048-.114.014-.062.003-.112-.033-.15-.036-.038-.13-.076-.287-.11l-.393-.09.236-1.05 3.084.69-.236 1.053z"/><path d="M72.015 65.242l1.568-.138-.95-2.064M128.734 64.237c.025-.204-.007-.385-.096-.544-.09-.16-.228-.286-.416-.382-.19-.093-.507-.167-.955-.223l-1.298-.16-.248 2 1.168.144c.458.058.807.06 1.045.004.237-.054.423-.152.557-.294.134-.14.214-.322.242-.543z"/></g></g></svg>
