<svg version="1.2" baseProfile="tiny" xmlns="http://www.w3.org/2000/svg" viewBox="0 0 192 192"><circle fill="#113F6D" cx="96" cy="96" r="96"/><path fill="#002A5C" d="M192 96c0-.545-.012-1.087-.02-1.63l-41.2-43.282-72.847 110.216 37.04 28.82C158.907 181.32 192 142.525 192 96.002z"/><path fill="#FFF" d="M156.74 75.27c.672-2.237 1.037-4.604 1.037-7.06 0-13.508-10.953-24.454-24.462-24.454-3.383 0-6.605.686-9.534 1.927-3.242-12.31-14.447-21.39-27.775-21.39-13.332 0-24.542 9.08-27.784 21.39-2.93-1.24-6.152-1.927-9.535-1.927-13.51 0-24.46 10.946-24.46 24.455 0 2.456.364 4.822 1.037 7.06-9.773 1.845-17.165 10.422-17.165 20.733 0 10.302 7.393 18.88 17.165 20.725-.673 2.235-1.038 4.603-1.038 7.057 0 13.51 10.952 24.46 24.46 24.46 3.385 0 6.607-.688 9.54-1.93 3.244 12.31 14.45 21.393 27.78 21.393 13.328 0 24.53-9.08 27.775-21.392 2.93 1.24 6.152 1.93 9.535 1.93 13.51 0 24.462-10.95 24.462-24.46 0-2.456-.365-4.823-1.04-7.058 9.774-1.85 17.166-10.424 17.166-20.725 0-10.31-7.39-18.886-17.163-20.734z"/><g><path fill="#002A5C" d="M95.69 110.312H89.99c-.25-1.24-.373-2.357-.373-3.47 0-13.628 17.59-20.072 17.59-35.556 0-9.912-6.688-13.505-13.13-13.505-5.822 0-11.398 3.967-11.398 9.913 0 3.593 3.22 8.67 10.406 9.787-1.362 3.47-4.46 5.203-7.93 5.203-5.696 0-12.015-4.46-12.015-13.13 0-7.806 5.82-17.224 22.176-17.224 15.857 0 23.537 8.426 23.537 19.08 0 17.84-22.3 22.177-23.168 38.902zm-2.85 12.883c4.46 0 8.3 3.84 8.3 8.302 0 4.58-3.84 8.174-8.3 8.174-4.582 0-8.175-3.592-8.175-8.173 0-4.46 3.593-8.302 8.174-8.302z"/></g></svg>