<svg version="1.1" id="Layer_1" xmlns="http://www.w3.org/2000/svg" x="0" y="0" viewBox="0 0 150 150" style="enable-background:new 0 0 150 150" xml:space="preserve"><style>.st4{fill:#fff}</style><path d="M.1 75C.1 33.6 33.6.1 75 .1c41.4 0 74.9 33.5 74.9 74.9 0 41.4-33.5 74.9-74.9 74.9C33.6 149.9.1 116.4.1 75z" style="fill:#228abc"/><path d="m33 35.2 72.1 5.6c5.9 0 12.4 5.1 12 11.1-.4 6.5-2.5 20.7-2.9 26.7-.4 7.2-3.4 11.1-9.3 11.1H97c-7 8.1-6.5 10.9-15 20.2-1 1-1.7 1-3 0-10.6-8.3-15.2-8.9-22.2-15.4h-2.5c-5.9 0-9.7-2.5-12.9-10.6C39.1 78 26.8 56.2 24 48.5c-2.2-5.9 3.1-13.3 9-13.3z" style="fill:#6f6f6f"/><path d="m33.5 32.9 83.1 3.4c6.6 0 13.2 5.5 11.9 11.9-1.3 7-4.7 27.9-6 34.3-1.5 7.7-5.3 11.9-11.9 11.9h-8.9L96 105.6l-5.4 10.5c-.7 1.5-2 1-3.4 0-12.7-9.5-12.8-9.6-30.6-21.7H44c-6.6 0-9.5-3.2-11.9-11.9-1.8-6.3-8.4-27.1-10.5-35.3-1.7-6.3 5.3-14.3 11.9-14.3z" style="fill:#004667"/><path d="M89.4 119c-1.3 0-2.4-.7-3.2-1.3l-.8-.6c-11.8-8.8-12.4-9.2-29.2-20.7H44c-8.3 0-11.4-5.1-13.7-13.3-.7-2.4-2.1-7-3.7-12.3-2.6-8.4-5.5-18-6.8-23.1-.9-3.4.1-7.2 2.8-10.6 2.9-3.7 7.1-6 11-6h.1l83.1 3.4c4.3 0 8.6 2 11.3 5.3 2.2 2.6 3 5.8 2.5 8.9-.7 3.5-1.9 10.5-3 17.4-1.2 7.1-2.3 13.7-3 17-2.1 11.1-8.7 13.5-13.8 13.5h-7.7L92.4 117c-.6 1.3-1.6 1.7-2.2 1.9-.3 0-.6.1-.8.1zm-.4-3.6zM33.5 34.8c-2.7 0-5.8 1.8-8 4.6-1.9 2.4-2.7 5.2-2.1 7.4 1.3 5 4.2 14.5 6.8 22.9 1.6 5.3 3 9.9 3.7 12.4 2.5 9 5.3 10.6 10.1 10.6h13.3l.5.3c17.4 11.9 17.9 12.2 29.8 21.1l.8.6c.3.2.5.4.7.4l11.5-22.5h10c5.5 0 8.8-3.4 10.1-10.4.6-3.2 1.8-10.2 2.9-16.9 1.2-6.8 2.4-13.9 3-17.4.5-2.6-.6-4.6-1.7-5.8-2-2.4-5.3-3.9-8.4-3.9h-.1l-82.9-3.4z" style="fill:#d8c9ba"/><g><path class="st4" d="M49.7 46.1v8.1h.1c1.1-1.3 2.6-1.9 4.5-1.9 3.7 0 5.8 2.8 5.8 8.3v15.8h-5.2V60.7c0-2.8-.8-3.8-2.4-3.8-1.3 0-2.2.7-2.7 1.4v18.1h-5.2V46.1h5.1zM68.2 65.5v3.2c0 2.7.9 3.9 2.8 3.9 1.5 0 2.4-.9 3-3.3l3.9 1.2c-1 4.3-3.3 6.4-7.4 6.4-4.9 0-7.6-3.5-7.6-8v-8.5c0-4.4 2.6-8 7.6-8 4.9 0 7.3 3.6 7.3 8.2v5h-9.6zm0-3.4h4.9V60c0-2.5-.8-3.4-2.5-3.4s-2.5 1-2.5 3.4v2.1zM86.5 46.1v30.4h-5.2V46.1h5.2zM90.7 81.3V52.7h4.6l.1 1.8h.1c1.2-1.5 2.9-2.2 4.9-2.2 3.7 0 5.9 2.9 5.9 8.4v7.9c0 5.3-2.2 8.2-6.1 8.2-1.7 0-3.1-.5-4.1-1.6H96v6.1h-5.3zm5.2-10.4c.6.9 1.4 1.4 2.6 1.4 1.6 0 2.5-1 2.5-3.8v-7.8c0-2.8-.7-3.8-2.4-3.8-1.3 0-2.2.7-2.7 1.4v12.6z"/></g><path d="m148.5 60.4-19.9-19.9c1.7 2.4 2.4 5.3 1.8 8.1-.7 3.5-1.9 10.5-3 17.4-1.2 7.1-2.3 13.7-3 17-2.1 11.1-8.7 13.5-13.8 13.5h-7.7L92.4 117c-.6 1.3-1.6 1.7-2.2 1.9-.3.1-.5.1-.7.1-1.3 0-2.4-.7-3.2-1.3l-.8-.6c-11.8-8.8-12.4-9.2-29.2-20.7H44c-3.1 0-5.5-.7-7.4-2l53.9 53.9c33.9-7.2 59.3-37.2 59.3-73.3.1-5-.4-9.9-1.3-14.6z" style="opacity:.25"/></svg>