<svg version="1.2" baseProfile="tiny" xmlns="http://www.w3.org/2000/svg" viewBox="0 0 192 192"><circle fill="#D6C9AE" cx="96" cy="96" r="96"/><path fill="#2091E5" d="M146.25 78H45.75c-2.75 0-5-2.25-5-5V51c0-2.75 2.25-5 5-5h100.5c2.75 0 5 2.25 5 5v22c0 2.75-2.25 5-5 5z"/><path fill="#1E88E5" d="M45.75 78h100.5c2.75 0 5-2.25 5-5L40.75 51v22c0 2.75 2.25 5 5 5z"/><path fill="#B7A78B" d="M182.27 137.832l-49.148-49.148L123 116.5l-49.292 27.584 45.15 45.152c28.11-6.62 51.346-25.855 63.412-51.404z"/><path fill="#FFF" d="M130.284 88.155c-3.346 0-6.06 2.712-6.06 6.058v11.95h-1.758V91.005c0-3.347-2.712-6.06-6.057-6.06-3.348 0-6.06 2.713-6.06 6.06v15.156h-1.76V87.798c0-3.346-2.712-6.058-6.057-6.058-3.346 0-6.058 2.712-6.058 6.058v18.364h-1.76v-45.09c0-3.347-2.712-6.06-6.058-6.06-3.346 0-6.057 2.713-6.057 6.06V124.36h-1.76v-29.1c0-3.347-2.712-6.06-6.058-6.06-3.346 0-6.058 2.713-6.058 6.06v34.385c0 5.72 2.184 11.443 6.548 15.81l5.528 5.527c4.366 4.365 10.088 6.547 15.81 6.548h30.087c5.327 0 9.645-4.32 9.645-9.644V94.213c0-3.345-2.713-6.057-6.058-6.057z"/></svg>