<svg xmlns="http://www.w3.org/2000/svg" width="31.465" height="21.5" viewBox="0.267 5.25 31.465 21.5"><path d="M31.471 25.439c.262 0 .262-.131.262-.131v1.053s0 .389-.262.389H.531l-.262-.393v-1.049s0 .131.262.131h30.94zM4.69 20.721h22.583s.787-.103.787-.885V6.021s0-.771-.787-.771H4.725s-.787 0-.787.781v13.781s0 .905.751.905l.001.004zM16.02 5.527a.29.29 0 1 1 0 .58.29.29 0 0 1 0-.58zm-10.77.772h21.5v13.372H5.25V6.299zm22.811 14.905s-.262-.222-.787-.222H4.725c-.529 0-.787.256-.787.256L.267 24.804s0 .372.262.372h30.939c.263 0 .263-.381.263-.381l-3.672-3.591h.002zM4.709 23.079l1.59-1.835h19.485l1.491 1.835H4.709z" fill="#fff" /></svg>