<svg xmlns="http://www.w3.org/2000/svg" width="1088" height="1024" viewBox="0 0 1088 1024"><path d="M48.384 896H624c26.464 0 48-21.536 48-48V240c0-.736-.32-1.376-.416-2.08s-.224-1.312-.416-1.984c-.736-2.752-1.92-5.312-3.904-7.264L443.296 4.704c-1.952-1.952-4.512-3.136-7.264-3.904-.672-.192-1.28-.32-1.984-.416C433.376.32 432.736 0 432 0H48.192C21.632 0 0 21.536 0 48v800c0 26.464 21.696 48 48.384 48zM448 54.624L617.376 224H464c-8.8 0-16-7.168-16-16V54.624zM32 48c0-8.832 7.264-16 16.192-16H416v176c0 26.464 21.536 48 48 48h176v592c0 8.832-7.2 16-16 16H48.384C39.328 864 32 856.832 32 848V48zm112 336h384c8.832 0 16-7.168 16-16s-7.168-16-16-16H144c-8.832 0-16 7.168-16 16s7.168 16 16 16zm0 128h384c8.832 0 16-7.168 16-16s-7.168-16-16-16H144c-8.832 0-16 7.168-16 16s7.168 16 16 16zm0-256h160c8.832 0 16-7.168 16-16s-7.168-16-16-16H144c-8.832 0-16 7.168-16 16s7.168 16 16 16zm0 384h384c8.832 0 16-7.168 16-16s-7.168-16-16-16H144c-8.832 0-16 7.168-16 16s7.168 16 16 16zm0 128h384c8.832 0 16-7.168 16-16s-7.168-16-16-16H144c-8.832 0-16 7.168-16 16s7.168 16 16 16zm544-608h144v176c0 26.464 21.536 48 48 48h176v592c0 8.832-7.2 16-16 16H464.384c-9.056 0-16.384-7.168-16.384-16v-32c0-8.832-7.168-16-16-16s-16 7.168-16 16v32c0 26.464 21.696 48 48.384 48H1040c26.464 0 48-21.536 48-48V368c0-.736-.32-1.376-.416-2.08s-.224-1.312-.416-1.984c-.736-2.752-1.92-5.312-3.904-7.264L859.296 132.704c-1.952-1.984-4.544-3.168-7.296-3.904-.672-.192-1.248-.288-1.952-.384-.672-.096-1.312-.416-2.048-.416H688c-8.832 0-16 7.168-16 16s7.168 16 16 16zm192 192c-8.8 0-16-7.168-16-16V182.624L1033.376 352H880zM752 512h192c8.832 0 16-7.168 16-16s-7.168-16-16-16H752c-8.832 0-16 7.168-16 16s7.168 16 16 16zm0 128h192c8.832 0 16-7.168 16-16s-7.168-16-16-16H752c-8.832 0-16 7.168-16 16s7.168 16 16 16zm0 128h192c8.832 0 16-7.168 16-16s-7.168-16-16-16H752c-8.832 0-16 7.168-16 16s7.168 16 16 16zm0 128h192c8.832 0 16-7.168 16-16s-7.168-16-16-16H752c-8.832 0-16 7.168-16 16s7.168 16 16 16z" fill="#fff" /></svg>