<svg xmlns="http://www.w3.org/2000/svg" width="24.352" height="31.474" viewBox="3.822 0.262 24.352 31.474"><path d="M27.279 2.764h-5.572v1.25h5.218v26.472H5.073V4.014h5.218v-1.25H4.719a.898.898 0 0 0-.897.897v27.178c0 .494.402.897.897.897h22.558a.897.897 0 0 0 .896-.897V3.661a.898.898 0 0 0-.896-.897h.002zM8.118 7.874h15.764v.815H8.118v-.815zm0 1.902h15.764v.816H8.118v-.816zm0 1.903H18.99v.815H8.119l-.001-.815zm0 1.902h15.764v.815H8.118v-.815zm0 1.903H16v.816H8.118v-.816zm0 1.902H18.99v.815H8.119l-.001-.815zm0 1.902H18.99v.815H8.119l-.001-.815zm0 1.903H18.99v.815H8.119l-.001-.815zm0 1.903H16v.815H8.118v-.815zm0 3.804h4.892v.816H8.118v-.816zm7.871 1.67l1.083-.314 8.181-8.18-.769-.77-8.18 8.18-.315 1.084zm8.878-9.652l.77.77-.193.191-.769-.77.192-.191zM10.293 4.884c0 .149.123.272.272.272h10.871a.273.273 0 0 0 .272-.272v-2.99a.273.273 0 0 0-.272-.272h-2.174a.273.273 0 0 1-.271-.272V.534a.273.273 0 0 0-.272-.272h-5.436a.273.273 0 0 0-.272.272v.816a.273.273 0 0 1-.272.272h-2.174a.274.274 0 0 0-.272.272v2.99zM16.036.807a.509.509 0 1 1-.001 1.017.509.509 0 0 1 .001-1.017z" fill="#fff" /></svg>