<svg xmlns="http://www.w3.org/2000/svg" height="128" width="128" viewBox="0 0 128 128"><path d="M27.614 114h20.313V23.375H27.614V114zm3.907-86.719h12.5v3.125h-12.5v-3.125zm0 79.688h12.5v3.125h-12.5v-3.125zM51.052 114h20.313V19.469H51.052V114zm3.906-90.625h12.5V26.5h-12.5v-3.125zm0 83.594h12.5v3.125h-12.5v-3.125zm37.23-81.371l-20.161 2.466 10.51 85.917 20.162-2.467-10.511-85.916zM76.99 35.107l-.374-3.103 12.572-1.518.373 3.103-12.571 1.518zm8.48 71.084l12.313-1.485.373 3.102-12.312 1.486-.374-3.103z" fill="#fff" /></svg>