<svg version="1.2" baseProfile="tiny" xmlns="http://www.w3.org/2000/svg" viewBox="0 0 128 128"><path fill="#fff" d="M35.18 70.983c6.792 0 12.71-3.68 15.915-9.143-5.704-4.408-9.387-11.31-9.387-19.06 0-2.457.372-4.83 1.06-7.064-2.317-1.047-4.88-1.645-7.588-1.645-10.193 0-18.456 8.264-18.456 18.457s8.263 18.456 18.456 18.456zM24 91.377V76.665l-.994-1.413L6 78.456v16.486c14.106 10.504 27.194 11.43 37.56 9.05-6.082-2.62-12.468-6.532-19.037-12.166l-.523-.45zM79.938 62.25c3.34 4.75 8.85 7.862 15.098 7.862 10.193 0 18.456-8.263 18.456-18.456S105.23 33.2 95.036 33.2c-2.348 0-4.585.455-6.65 1.255.96 2.596 1.484 5.4 1.484 8.326 0 7.995-3.918 15.088-9.932 19.47zM122.18 94.965l-.003-17.53-15.688-3.054-1.49 2.295v14.61l-.412.435c-.31.325-6.586 6.83-17.064 11.677 15.614 3.13 28.142-3.657 34.656-8.432z"/><path fill="#fff" d="M44.708 42.78c0 11.625 9.457 21.082 21.08 21.082s21.082-9.457 21.082-21.08c0-11.626-9.457-21.083-21.08-21.083s-21.082 9.456-21.082 21.08z"/><path fill="#fff" d="M86.87 42.78c0 11.625-9.457 21.082-21.08 21.082s-21.082-9.457-21.082-21.08c0-11.626 9.457-21.083 21.08-21.083S86.87 31.155 86.87 42.78zM102 90.064V76.72l-22.23-4.46-14.157 22.423L50.23 72.245 27 76.73v13.264c17.208 14.54 35.05 18.96 53.046 13.134 11.96-3.873 20.08-11.25 21.954-13.064z"/><path fill="#fff" d="M27 89.994V76.73l23.23-4.485 15.383 22.438L79.77 72.26 102 76.72v13.344c-1.873 1.815-9.995 9.19-21.954 13.064C62.05 108.955 44.208 104.535 27 89.994z"/></svg>