<svg xmlns="http://www.w3.org/2000/svg" width="28.914" height="31.529" viewBox="1.436 0.256 28.914 31.529"><path d="M21.941 22.854l-2.754 1.59L8.121 11.679l2.051-2.796-4.399-7.57-1.159.504-3.178 6.738c4.328 16.354 19.285 23.23 19.285 23.23l7.562-2.027.612-.863-7.063-5.979.109-.062zM11.859 6.584L8.202.256l-1.653.72 4.216 7.099 1.094-1.491zM30.35 26.841l-6.203-5.259-1.563.902 6.792 5.732.974-1.375zM10.766 8.075l-.223.303.223-.303zM5.774 1.313l.777-.338-.777.338zm16.809 21.171z" fill="#fff" /></svg>