<svg xmlns="http://www.w3.org/2000/svg" width="31.432" height="22.508" viewBox="0.284 4.747 31.432 22.508"><path d="M29.254 27.255H2.746a2.464 2.464 0 0 1-2.462-2.462V7.209a2.465 2.465 0 0 1 2.462-2.462h26.508a2.465 2.465 0 0 1 2.462 2.462v17.584a2.465 2.465 0 0 1-2.462 2.462zM2.746 5.995c-.668 0-1.212.544-1.212 1.212v17.584c0 .669.544 1.212 1.212 1.212h26.508c.669 0 1.212-.544 1.212-1.212V7.207c0-.668-.544-1.212-1.212-1.212H2.746zm7.48 10.53h11.547v.524H10.226v-.524zm0 2.887h11.547v.525H10.226v-.525zm-7.874 3.412v1.574s0 .789.788.789h2.881s.006-2.362-.839-2.362l-2.83-.001zm4.725-10.761H2.353v.525h4.199s.136 1.837-1.313 1.837V13.9c.837 0 .787-.787.787-.787H2.351v1.837h2.887c1.995 0 1.837-2.887 1.837-2.887h.002zm-4.725 3.15h2.887v7.35H2.352v-7.35zm27.296 7.611v1.574s0 .789-.787.789h-2.879s-.006-2.362.838-2.362h2.826l.002-.001zm-4.721-10.761s-.157 2.887 1.837 2.887h2.885v-1.837h-3.672s-.002.787.785.787v.525c-1.574 0-1.309-1.837-1.309-1.837h4.195v-.525h-4.721zm1.835 3.15h2.887v7.35h-2.887v-7.35zM6.213 9.141a.474.474 0 0 0-.199-.181.395.395 0 0 0-.234-.03.393.393 0 0 0-.292.203.758.758 0 0 0-.064.505c.034.195.108.342.221.439a.393.393 0 0 0 .342.09.392.392 0 0 0 .29-.202c.073-.133.092-.297.058-.491a.846.846 0 0 0-.122-.333zm22.646-2.327H3.139s-.788 0-.788.787v4.462H6.55s9.448-3.118 18.897 0h4.199V7.601c0-.787-.787-.787-.787-.787zM4.745 10.507a.765.765 0 0 1-.462.28c-.093.021-.18.027-.262.021a.965.965 0 0 1-.268-.063l-.027.135-.186.041-.271-.636.221-.107a.831.831 0 0 0 .332.281.618.618 0 0 0 .412.05.456.456 0 0 0 .15-.058.201.201 0 0 0 .078-.085.14.14 0 0 0 .012-.093c-.011-.05-.045-.086-.101-.11a.906.906 0 0 0-.28-.047l-.31-.018a1.303 1.303 0 0 1-.194-.029.66.66 0 0 1-.197-.068.445.445 0 0 1-.132-.119.456.456 0 0 1-.059-.441.546.546 0 0 1 .19-.237.833.833 0 0 1 .758-.122l.029-.097.178-.039.278.54-.219.117a.852.852 0 0 0-.33-.242.582.582 0 0 0-.334-.026.296.296 0 0 0-.159.081c-.035.038-.049.074-.04.11.009.04.036.073.081.099a.52.52 0 0 0 .223.047l.356.021c.197.011.345.051.443.12.098.07.159.163.185.279a.494.494 0 0 1-.095.415zm2.039-.635a.827.827 0 0 1-.271.373 1.072 1.072 0 0 1-.484.2c-.26.046-.484.013-.674-.098a.856.856 0 0 1-.419-.624.87.87 0 0 1 .148-.692c.146-.198.359-.323.643-.373.279-.049.519-.006.721.13a.866.866 0 0 1 .372.596.926.926 0 0 1-.036.488zm1.773.026a1.006 1.006 0 0 1-.522.231.888.888 0 0 1-.468-.055.923.923 0 0 1-.551-.728.909.909 0 0 1 .054-.47.846.846 0 0 1 .274-.363.907.907 0 0 1 .434-.177.913.913 0 0 1 .456.043l.031-.08.18-.025.26.599-.226.1a1.219 1.219 0 0 0-.265-.286.47.47 0 0 0-.33-.085.424.424 0 0 0-.221.099.472.472 0 0 0-.142.222.707.707 0 0 0-.02.315.766.766 0 0 0 .207.441.451.451 0 0 0 .403.14.546.546 0 0 0 .273-.123 1.02 1.02 0 0 0 .257-.318l.216.116a1.47 1.47 0 0 1-.3.406v-.002zm.488.069l-.027-.241.07-.008a.268.268 0 0 0 .097-.022.07.07 0 0 0 .03-.037.265.265 0 0 0 .001-.093l-.109-.967a.328.328 0 0 0-.023-.105.08.08 0 0 0-.04-.035.24.24 0 0 0-.088 0l-.079.009-.027-.241.865-.098.027.241-.079.009a.213.213 0 0 0-.089.022.076.076 0 0 0-.029.041.312.312 0 0 0 0 .099l.108.963a.335.335 0 0 0 .02.1.06.06 0 0 0 .034.029.17.17 0 0 0 .082.006l.094-.011.027.241-.865.098zm1.977-.202l-.021-.242.051-.005c.047-.004.079-.013.097-.027.018-.014.026-.03.024-.047a.363.363 0 0 0-.032-.091l-.067-.154-.54.047-.051.182-.014.075.018.035a.09.09 0 0 0 .05.02c.014.002.055 0 .12-.005l.021.241-.688.06-.021-.241a.32.32 0 0 0 .096-.02.112.112 0 0 0 .047-.038.308.308 0 0 0 .037-.088l.428-1.423.399-.035.651 1.301a.341.341 0 0 0 .089.126c.024.015.066.019.126.013l.021.242-.841.074zm2.295-.156l-1.36.079-.014-.242.085-.005a.183.183 0 0 0 .078-.018.092.092 0 0 0 .037-.039c.007-.016.009-.043.007-.082l-.057-.991a.235.235 0 0 0-.017-.089.08.08 0 0 0-.037-.038.154.154 0 0 0-.075-.008l-.094.005-.014-.242.87-.05.014.242-.076.005a.28.28 0 0 0-.08.011.082.082 0 0 0-.042.04.191.191 0 0 0-.009.083l.058.999c.002.04.005.065.01.074l.025.021a.712.712 0 0 0 .341-.056.506.506 0 0 0 .18-.152.85.85 0 0 0 .129-.272l.239.066-.198.661v-.002zm2.554-.209a.766.766 0 0 1-.509.181.869.869 0 0 1-.511-.149l-.055.126-.191.003-.136-.678.239-.06c.058.137.148.252.268.342s.251.135.394.133c.064-.001.117-.009.159-.026s.073-.039.094-.068a.15.15 0 0 0 .031-.088c-.001-.05-.026-.093-.076-.128a.876.876 0 0 0-.265-.103l-.3-.081a1.3 1.3 0 0 1-.184-.069.686.686 0 0 1-.179-.106.446.446 0 0 1-.148-.329.457.457 0 0 1 .075-.258.544.544 0 0 1 .234-.194.827.827 0 0 1 .348-.078.77.77 0 0 1 .42.112l.049-.089.182-.003.162.585-.238.07a.856.856 0 0 0-.274-.304.573.573 0 0 0-.322-.093.298.298 0 0 0-.172.047c-.042.03-.062.063-.062.099.001.041.02.079.059.114a.517.517 0 0 0 .208.091l.344.093c.191.051.327.12.41.208a.484.484 0 0 1-.054.698V9.4zm1.883.167l-1.543-.026.004-.243.045.001a.38.38 0 0 0 .12-.01.08.08 0 0 0 .044-.043.53.53 0 0 0 .008-.107l.016-.954c.001-.052-.002-.086-.009-.102s-.018-.028-.034-.037a.238.238 0 0 0-.09-.013l-.08-.001.004-.242 1.49.025.193.557-.233.078a.743.743 0 0 0-.135-.221.388.388 0 0 0-.172-.113.84.84 0 0 0-.221-.031l-.27-.005-.008.437.09.002a.446.446 0 0 0 .137-.012.093.093 0 0 0 .051-.044.292.292 0 0 0 .017-.122l.001-.066.227.004-.012.742-.228-.004.001-.075a.239.239 0 0 0-.018-.113.094.094 0 0 0-.049-.049.5.5 0 0 0-.142-.015l-.081-.001-.006.403a.256.256 0 0 0 .005.078l.024.022s.039.008.08.009l.15.003a.732.732 0 0 0 .284-.043.547.547 0 0 0 .208-.149.747.747 0 0 0 .143-.248l.232.083-.245.647.002-.002zm1.773-.046c-.17.096-.355.139-.557.129a.877.877 0 0 1-.758-.49.946.946 0 0 1-.097-.471.892.892 0 0 1 .141-.451.851.851 0 0 1 .339-.305.909.909 0 0 1 .459-.093.9.9 0 0 1 .439.128l.046-.073.181.009.143.637-.24.056a1.195 1.195 0 0 0-.207-.33.474.474 0 0 0-.309-.146.433.433 0 0 0-.235.056.453.453 0 0 0-.181.191.72.72 0 0 0-.08.306.761.761 0 0 0 .123.471c.09.135.213.206.369.213a.553.553 0 0 0 .293-.069c.117-.063.223-.152.312-.265l.19.154c-.137.166-.26.28-.369.342l-.002.001zm2.22-1.201a.09.09 0 0 0-.048.04.268.268 0 0 0-.02.103l-.059.688a.813.813 0 0 1-.083.314.575.575 0 0 1-.271.251.807.807 0 0 1-.412.063.809.809 0 0 1-.291-.075.675.675 0 0 1-.215-.161.54.54 0 0 1-.119-.206.886.886 0 0 1-.014-.306l.059-.675c.006-.062.006-.102 0-.12s-.016-.033-.03-.042a.213.213 0 0 0-.088-.02l-.082-.007.021-.242.867.074-.021.242-.084-.007a.169.169 0 0 0-.084.007.09.09 0 0 0-.041.036.33.33 0 0 0-.02.104l-.055.636c-.01.118-.006.208.014.268s.053.108.1.143a.324.324 0 0 0 .174.061.348.348 0 0 0 .191-.034.284.284 0 0 0 .127-.117.677.677 0 0 0 .057-.252l.061-.701a.125.125 0 0 0-.006-.063.085.085 0 0 0-.038-.039.316.316 0 0 0-.09-.015l-.069-.006.021-.242.733.063-.021.241-.058-.005a.304.304 0 0 0-.106.001zm2.097 1.761l-.566-.07-.477-.82-.148-.018-.044.347a.39.39 0 0 0-.004.115c.004.017.015.03.027.04.014.01.043.017.088.023l.081.01-.03.241-.867-.107.031-.241.078.01a.22.22 0 0 0 .092-.002.089.089 0 0 0 .043-.034.318.318 0 0 0 .018-.093l.121-.979c.005-.038.005-.066 0-.083s-.014-.029-.027-.036a.176.176 0 0 0-.068-.023l-.035-.003-.067-.008.03-.248 1.092.136c.07.009.146.025.228.047s.154.059.217.11a.427.427 0 0 1 .164.406.405.405 0 0 1-.182.303.72.72 0 0 1-.361.118l.313.462.014.021a.35.35 0 0 0 .058.071l.055.037a.302.302 0 0 0 .081.019l.076.009-.031.24zm1.168-1.339l-.078-.012a.218.218 0 0 0-.092-.002.061.061 0 0 0-.037.032.275.275 0 0 0-.027.096l-.148.958a.3.3 0 0 0-.006.102.069.069 0 0 0 .024.037.18.18 0 0 0 .078.027l.094.015-.037.239-.86-.133.037-.239.069.011c.05.008.084.009.1.005a.067.067 0 0 0 .038-.028.237.237 0 0 0 .026-.089l.147-.962a.276.276 0 0 0 .005-.108.09.09 0 0 0-.029-.045.224.224 0 0 0-.086-.023l-.078-.012.037-.239.86.133-.036.239-.001-.002zm1.606.688a1.558 1.558 0 0 0-.076-.217.557.557 0 0 0-.127-.171.252.252 0 0 0-.122-.063c-.02-.004-.035-.002-.044.006-.009.008-.017.029-.022.063l-.183.991a.537.537 0 0 0-.015.111l.016.039.038.025s.063.016.142.03l-.045.239-.855-.158.044-.238.052.01c.057.011.096.014.112.01s.032-.014.044-.03a.296.296 0 0 0 .033-.108l.187-1.012c.005-.029.005-.047 0-.056-.006-.008-.019-.015-.041-.019a.3.3 0 0 0-.156.021.492.492 0 0 0-.168.11c-.021.02-.068.078-.142.174l-.215-.123.327-.564.166.03.007.061.987.182.033-.054.168.031.105.644-.248.037-.002-.001zm2.14.065a.32.32 0 0 0-.133-.008.32.32 0 0 0-.109.075l-.613.56-.068.305a.328.328 0 0 0-.014.107.082.082 0 0 0 .029.044.275.275 0 0 0 .099.034l.061.014-.053.236-.851-.191.054-.236.046.011c.061.014.1.018.118.014a.085.085 0 0 0 .047-.031.3.3 0 0 0 .038-.108l.06-.268-.309-.796a.293.293 0 0 0-.073-.123.377.377 0 0 0-.116-.04l.053-.236.865.194-.053.237-.064-.015a.228.228 0 0 0-.088-.009c-.014.004-.021.014-.025.03-.006.021.002.056.019.104l.146.422.391-.378.012-.026-.008-.034c-.008-.008-.029-.017-.064-.025l-.088-.02.054-.236.694.155-.057.238zM10.605 8.99l.353-.031-.213-.464-.14.495zm12.758-.226a.202.202 0 0 0-.021-.123.217.217 0 0 0-.093-.086.72.72 0 0 0-.215-.05l-.292-.036-.057.45.264.033a.722.722 0 0 0 .234.001.235.235 0 0 0 .125-.066.225.225 0 0 0 .055-.123z" fill="#fff" /></svg>