<svg xmlns="http://www.w3.org/2000/svg" width="31.536" height="31.333" viewBox="0.259 0.433 31.536 31.333"><path d="M15.216 20.827l1.662-3.288h-.019l-1.643 3.288zm1.643-3.289h.02l2.287-4.521-1.586 4.521h13.895c1.78-10.018-4.431-8.215-4.431-8.215 0-5.572-7.124-4.625-7.124-4.625-.73-4.749-6.85-4.25-6.85-4.25-7.535 0-7.946 7.712-7.946 7.712-6.211 0-4.704 9.379-4.704 9.379h10.762l2.573-6.508-3.47 12.672h4.338l-2.694 8.063 6.575-10.889h-3.287l1.642-3.339zM7.2 20.621s-2.244.966-1.265 1.67c0 0 .893.508 1.265-1.67zm-3.853 4.624s-2.244.966-1.265 1.67c0 0 .892.508 1.265-1.67zm3.597 2.312s-2.244.967-1.265 1.67c0 0 .893.507 1.265-1.67zm15.669-5.138s-2.244.966-1.266 1.67c.001 0 .893.509 1.266-1.67zm3.853 3.852s-2.243.967-1.265 1.67c0 0 .892.509 1.265-1.67z" fill="#fff" /></svg>